<?xml version="1.0" encoding="UTF-8" standalone="no"?>
<svg
   xmlns:dc="http://purl.org/dc/elements/1.1/"
   xmlns:cc="http://creativecommons.org/ns#"
   xmlns:rdf="http://www.w3.org/1999/02/22-rdf-syntax-ns#"
   xmlns:svg="http://www.w3.org/2000/svg"
   xmlns="http://www.w3.org/2000/svg"
   xmlns:xlink="http://www.w3.org/1999/xlink"
   xmlns:sodipodi="http://sodipodi.sourceforge.net/DTD/sodipodi-0.dtd"
   xmlns:inkscape="http://www.inkscape.org/namespaces/inkscape"
   style="height: 512px; width: 512px;"
   viewBox="0 0 512 512"
   version="1.1"
   id="svg8"
   sodipodi:docname="dice-black.svg"
   inkscape:version="0.92.2 (5c3e80d, 2017-08-06)">
  <metadata
     id="metadata14">
    <rdf:RDF>
      <cc:Work
         rdf:about="">
        <dc:format>image/svg+xml</dc:format>
        <dc:type
           rdf:resource="http://purl.org/dc/dcmitype/StillImage" />
        <dc:title></dc:title>
      </cc:Work>
    </rdf:RDF>
  </metadata>
  <defs
     id="defs12">
    <pattern
       inkscape:stockid="Stripes 1:1"
       id="Strips1_1"
       patternTransform="translate(0,0) scale(10,10)"
       height="1"
       width="2"
       patternUnits="userSpaceOnUse"
       inkscape:collect="always">
      <rect
         id="rect5255"
         height="2"
         width="1"
         y="-0.5"
         x="0"
         style="fill:black;stroke:none" />
    </pattern>
    <clipPath
       clipPathUnits="userSpaceOnUse"
       id="clipPath4535">
      <use
         x="0"
         y="0"
         xlink:href="#g4531"
         id="use4537"
         width="100%"
         height="100%" />
    </clipPath>
  </defs>
  <sodipodi:namedview
     pagecolor="#ffffff"
     bordercolor="#666666"
     borderopacity="1"
     objecttolerance="10"
     gridtolerance="10"
     guidetolerance="10"
     inkscape:pageopacity="0"
     inkscape:pageshadow="2"
     inkscape:window-width="1920"
     inkscape:window-height="1017"
     id="namedview10"
     showgrid="false"
     inkscape:zoom="0.4609375"
     inkscape:cx="-449.08475"
     inkscape:cy="256"
     inkscape:window-x="-8"
     inkscape:window-y="-8"
     inkscape:window-maximized="1"
     inkscape:current-layer="svg8"
     inkscape:pagecheckerboard="true"
     inkscape:showpageshadow="false"
     showborder="false" />
  <g
     class=""
     style="touch-action: none;"
     transform="translate(0,0)"
     id="g6">
    <path
       d="M248 20.27L72.33 132.598 248 128.775zm16 0v108.505l175.67 3.823zm37.844 55.066c4.647-.112 9.772 1.762 13.576 3.824 6.082 3.54 8.205 7.248 15.074 4.22 10.698.844 22.297 5.794 27.568 15.68 4.715 4.574 1.555 12.61-5.167 12.65-9.72.06-19.74-6.075-14.563-8.314 4.65-2.01 14.634.886 10.014-5.56-3.632-4.435-11.085-7.78-16.352-5.897-1.59 6.81-9.382 3.996-11.955-.643-2.357-5.815-9.154-8.18-15.085-7.916-6.06 2.703 1.67 8.784 5.344 9.936 7.904 2.124.217 7.454-4.062 5.07-4.28-2.386-14.993-9.645-13.523-18.34 2.188-3.336 5.514-4.623 9.13-4.71zm-94.987.293c5.534.522 12.383 3.06 10.202 9.975-4.282 6.93-9.778 13.057-18.062 14.782-6.514 3.368-14.885 4.397-21.646 1.883-3.604-2.246-13.427-9.325-14.81-3.354-.666 6.2 3.028 15.352-6.106 15.816l-5.02 2.006v-24.46c9.842-3.876 21.037-4.516 30.266 1.335 7.973 4.16 19.38 1.503 24.252-5.783 1.33-6.494-8.162-4.57-12.24-3.336-2.687-8.26 7.87-7.47 13.163-8.865zm35.012 69.282l-186.48 4.06 71.23 192.93zm28.26 0l115.25 196.99 71.23-192.93zm-14.13 7.53l-117.076 200.11h234.152zm122.4 18.132c3.895.046 7.914 1.155 10.942 2.96 13.828 8.237 21.455 26.145 22.056 42.956.084 5.698-1.618 13.246-5.966 17.016-2.85 1.984-6.025 3.198-9.244 4.432-16.824-1.18-23.932-19.237-29.727-32.625-3.405-9.887-5.777-24.05 1.74-31.32 2.533-2.45 6.305-3.465 10.2-3.42zm-227.627 7.707c6.525.26 12.91 4.953 14.844 11.32 2.083 3.974-.562 11.445-4.857 12.09-4.9.734-3.757-9.317-9.344-11.565-5.88-3.69-11.495 4.34-14.166 8.707-.33.96-.695 1.918-.896 2.914 10.397-4.057 20.312 7.093 20.304 16.953-.312 11.67-7.843 24.777-19.705 28.134h-5.564c-12.7-.706-18.296-15.853-14.163-26.63 4.42-15.785 10.772-33.904 27.134-40.6 2.048-1.002 4.24-1.41 6.413-1.323zm228.725 2.95c-7.066-.148-4.38 9.958-3.338 14.456 1.55 10.1 6.458 19.766 13.15 27.293 1.7 1.414 3.663 2.13 5.764 2.727 6.865-1.254 4.47-12.833 3.72-16.535-4.707-10.907-7.057-23.284-19.296-27.942zM52 185.98v173.266l61.86-5.703zm408 0l-61.86 167.563 61.86 5.703zm-117.88.698l28.478 63.492-10.014 4.447-20.027-43.365c-6.02 3.062-12.98 8.95-14.56-1.303-1.344-3.955 8.546-5.1 8.15-11.993-.393-6.892 2.154-12.126 7.972-11.28zm-205.847 24.3c-2.302.156-4.453 1.392-6.148 3.133-2.417 5.077-4.1 10.268-2.695 15.913 1.668 8.807 13.515 6.41 15.576-.85 2.663-4.976 3.863-11.65-.49-15.696-1.722-1.623-3.514-2.38-5.248-2.5-.335-.024-.666-.023-.995 0zm317.48 33.65c3.69.262 5.783 6.924 4.74 11.038-.137 18.62 1.144 39.21-9.677 55.322-.96 1.253-2.258 1.946-3.675 2.56-5.81-4.17-3.01-11.36 1.114-15.566 1.01 7.297 5.573-2.882 6.676-5.56 1.31-3.18 3.52-17.75-.983-10.27.69 4.05-6.805 13.154-9.38 8.118-4.937-14.41-.017-30.488 7.025-43.436 1.526-1.667 2.933-2.292 4.162-2.205zm-393.823.845c.588.086 1.344 1.032 2.478 3.584v61.156c-7.297-7.04-3.567-17.42-4.45-26.402-.814-7.606 1.655-16.264-1.274-23.193-4.622-1.674-5.797-17.045-3.176-12.672 4.407 4.768 4.657-2.73 6.422-2.472zm166.013 4.34c4.463.077 8.93 1.227 12.8 3.32 8.1 4.427 13.744 14.375 10.792 23.568-2.265 9.636-10.61 16.243-19.195 20.208-4.058 2.644-9.45 4.618-11.283 9.46-1.196 2.994 25.396 1.62 30.267 1.62.47 4.003 1.52 10.68-3.814 11.725-14.52-1.25-29.88-.606-45.14-.606.437-11.176 7.425-21.35 17.023-26.808 6.9-4.875 15.435-9.283 18.1-17.927 1.763-4.44-.56-9.28-4.632-11.47-4.154-2.874-10.947-2.34-13.178 2.7-1.992 3.82-4.38 9.075-8.657 9.604-2.893.358-8.99.475-7.263-4.873 1.46-5.63 3.413-11.567 8.263-15.213 4.45-3.726 10.18-5.403 15.918-5.306zm58.565.517c2.548.043 5.088.494 7.46 1.352 6.835 2.2 12.034 7.93 14.296 14.656 6.14 14.67 5.577 33.025-4.407 45.89-4.434 4.726-10.147 9.084-16.93 9.104-12.504-.152-22.452-11.172-24.83-22.865-3.145-13.39-1.786-28.618 6.913-39.733 3.686-5.435 10-8.212 16.406-8.398.364-.01.728-.012 1.092-.006zm166.388 5.768c-.997-.037-2.02.973-2.777 3.683-1.645 5.895-3.323 13.392-.755 19.298 5.1-1.992 5.47-9.617 6.676-14.437 1.127-3.304-.95-8.46-3.144-8.542zm-165.834 5.593c-3.386-.167-6.824 2.62-8.324 5.64-2.258 4.143-2.065 9.04-2.812 13.594-.813 9.084-.33 19.23 5.457 26.707l2.207 1.472c4.928 1.78 9.694-2.16 11.07-6.74 1.962-6.234 2.34-12.9 2.43-19.407-.235-7.035-1.47-14.922-6.73-20.012-1.044-.813-2.17-1.196-3.298-1.252zm148.954 5.158v61.156l-4.452 6.672v-42.254c-4.61 7.453-9.028 9.044-6.066-.912 6.054-7.15 4.81-17.41 10.518-24.662zm-359.37 1.11c.02.07.043.14.063.208 4.513-.497 7.276 7.277 9.104 10.865.8 3.573 5.12 17.77 2.032 14.798-.273-.453-.53-.914-.795-1.37l1.837 3.3c-4.598-3.657-6.375-10.487-4.444-8.024-1.558-3.014-2.96-6.095-4.218-9.24-.06 1.18-.727 2.115-2.465 2.793-1.287 3.49-1.265 7.08-.67 10.645.2-1.67 1.175-2.384 3.385-.754 7.842 12.624 12.176 29.107 7.298 43.498l-2.224 1.11c-10.357-5.83-11.404-19.436-13.427-30.003-1.555-12.29-.788-24.71 2.3-36.71.807-.547 1.567-.828 2.284-.907-.02-.07-.042-.137-.06-.207zm.06.208c.114.417.237.826.368 1.225-.12-.408-.25-.813-.365-1.224zm2.052 31.07c-4.06 4.626-2.26 12.79-.377 18.4 1.108 5.507 6.916 10.14 6.056 1.52-.05-5.63.17-11.725-3-16.39-.96-.537-1.907-1.898-2.678-3.53zm66.396 69.317L256 491.73l112.846-123.177zm-21.394.33l-53.797 4.96 64.223 41.065c-2.556-2.703-4.856-5.71-7.118-8.763-5.132-6.95-10.468-13.657-18.88-16.672-8.736-6.442-4.18-5.276 2.9-2.537-.948-1.854-.725-2.61.123-2.668 2.17-.153 8.43 4.226 9.74 6.37l24.706 31.606 65.15 41.656zm268.48 0l-42.472 46.36c6.404-3.148 11.38-8.538 17.056-12.493 2.396-1.346 3.72-1.896 4.295-1.89 2.055.017-5.43 7.116-7.682 10.333-9.42 9.813-16.066 23.033-28.668 29.114l18.914-24.46c-2.32 1.26-5.94 3.19-8.21 4.085l-40.28 43.968 74.468-47.615c5.48-6.718 1.903-5.537-5.64-.896l-11.438 6.014c11.46-13.746 26.855-23.568 40.053-35.582 3.162-1.492 9.503-5.663 10.986-5.738.777-.04.22 1.045-2.824 4.228l-12.613 15.965c10.01-7.533.884 3.926-4.45 5.56-.695 1.01-1.44 1.95-2.212 2.862l54.512-34.856zm-158.265 16.644c1.358.01 2.71.125 3.998.295v43.365h-13.35v-30.02c-5.04-1.378-10.417 1.722-15.34-.27-3.758-2.94 1.01-6.846 4.524-5.89 3.278-.126 7.556.197 9.324-3.234 2.635-3.34 6.77-4.274 10.845-4.246zm33.048.81c.464-.02.963.037 1.497.186 3.147.81 6.466.245 9.695.413h25.402c1.503 2.992.752 7.75-3.305 7.855-3.893.51-7.81-.382-11.69.212-4.698.146-9.753-1.773-14.198.404-3.122 1.66-4.165 8.505.988 6.076 3.366-1.11 6.912-1.807 10.408-.89 6.984 1.103 14.966 2.89 19.125 9.19 2.076 3.156 2.672 7.337.633 10.67-3.602 6.528-11.534 8.407-18.295 9.75-2.337.443-4.66 1.404-7.03 1.21-7.245-.593-15.603-1.083-20.603-7.144-2.662-2.494-2.703-7.097 1.903-6.66 3.57-.142 8.657-.4 10.322 3.505 3.247 3.66 8.837 2.94 13.127 1.98 3.588-.483 7.53-2.548 7.584-6.673.59-4.21-3.078-7.18-6.844-7.8-5.818-2.365-11.57 1.405-17.37 1.827-3.463 1.046-9.578.48-8.936-4.465.76-4.188 2.663-8.108 2.71-12.46.09-3.005 1.634-7.03 4.877-7.184zm133.47 4.975c-.21-.248-6.99 5.744-9.92 8.08l-15.75 13.118c8.59-4.363 16.472-9.61 22.275-17.448 2.553-2.6 3.476-3.652 3.394-3.75zm-247.032 14.16c2.39-.02 7.543 4.65 9.45 7.06l26.11 31.11c-7.722-2.182-13.29-7.19-17.653-13.777-6.43-7.316-11.282-16.606-21.213-19.54-8.943-5.002-5.18-6.42 2.133-2.264-.273-1.858.24-2.582 1.174-2.59z"
       fill="#fff"
       fill-opacity="1"
       id="path4"
       style="fill:#000000;fill-opacity:1" />
  </g>
  <path
     style="fill:#000000;fill-opacity:0;stroke-width:2.16949153"
     d="M 0,256.21695 V 1.3016949 H 256 512 V 256.21695 511.1322 H 256 0 Z m 313.21602,174.77647 c 30.57864,-33.33734 55.59754,-61.16107 55.59754,-61.83051 0,-0.66942 -50.7661,-1.21715 -112.81356,-1.21715 -62.04746,0 -112.81356,0.54773 -112.81356,1.21715 0,1.94387 111.02258,122.44387 112.81356,122.44387 0.89016,0 26.63736,-27.276 57.21602,-60.61336 z m -107.39105,28.61336 c -2.48507,-3.16869 -68.06959,-75.36065 -79.94613,-88.00046 -3.45746,-3.67965 -5.46832,-3.7607 -31.257817,-1.26015 -21.985512,2.13175 -26.994097,3.21402 -24.75285,5.34878 7.581922,7.22163 61.447447,39.46598 62.657847,37.50749 0.77285,-1.25049 3.21586,0.32317 5.61531,3.61706 3.84739,5.28163 64.26028,46.07267 68.76838,46.43272 1.04102,0.0831 0.55288,-1.5573 -1.08474,-3.64544 z M 342.32094,440.2949 c 42.7356,-27.23888 37.56206,-23.5169 38.13741,-27.43702 0.57207,-3.89771 13.26271,-14.94248 15.0805,-13.12466 0.71147,0.71146 -0.8615,3.09243 -3.4955,5.29104 -9.97593,8.32694 -0.50686,3.56673 24.5691,-12.35115 14.29005,-9.07117 26.44682,-17.2452 27.015,-18.16457 0.56819,-0.91934 -6.02571,-2.31517 -14.65311,-3.10181 -8.62742,-0.78666 -21.0557,-1.9564 -27.61841,-2.59944 l -11.9322,-1.16916 -18.18166,20.22161 c -9.99991,11.12188 -28.04598,30.82644 -40.10238,43.78787 -22.09239,23.75077 -28.73861,31.75578 -26.36549,31.75578 0.7103,0 17.60634,-10.39881 37.54674,-23.10849 z M 88.834269,356.853 c 13.785221,-1.32814 25.310321,-2.63207 25.611331,-2.89759 0.4064,-0.35849 -52.396003,-144.67832 -60.762873,-166.07744 -0.699808,-1.78983 -1.349454,36.04067 -1.443656,84.06779 l -0.171274,87.32204 h 5.851218 c 3.218172,0 17.130036,-1.08666 30.915254,-2.4148 z M 459.76092,271.94576 c -0.0942,-48.02712 -0.74383,-85.85762 -1.44364,-84.06779 -8.56813,21.91384 -61.16856,165.73574 -60.76288,166.13992 0.84681,0.84363 40.51488,4.61492 52.07272,4.9506 l 10.30508,0.29931 z m -86.60838,79.69094 c 0,-2.64253 -115.59272,-198.4706 -117.15254,-198.4706 -1.55982,0 -117.15254,195.82807 -117.15254,198.4706 0,0.61743 52.71864,1.12262 117.15254,1.12262 64.4339,0 117.15254,-0.50519 117.15254,-1.12262 z M 181.2313,250.79322 c 28.25061,-48.32542 53.85291,-92.1131 56.89402,-97.30594 l 5.52928,-9.44153 -85.48831,1.5889 c -47.01858,0.87389 -89.538485,2.19377 -94.488681,2.93305 l -9.000357,1.34416 34.018122,92.20339 c 18.709966,50.71187 34.751456,94.07512 35.647746,96.36279 0.97863,2.49778 2.40738,3.36444 3.57654,2.16949 1.07079,-1.09445 25.06103,-41.52889 53.31164,-89.85431 z m 241.40279,-6.50847 c 33.49673,-90.93098 34.59213,-94.42039 30.03472,-95.6755 -7.60205,-2.09359 -184.24565,-4.68128 -183.10257,-2.68231 2.73128,4.77639 86.50505,148.12657 99.76529,170.71423 8.30203,14.14179 15.86935,24.88077 16.81627,23.86441 0.94691,-1.01637 17.36573,-44.31575 36.48629,-96.22083 z M 222.91525,130.10977 249.49153,128.86479 V 74.845954 c 0,-34.319872 -0.78577,-54.018835 -2.15477,-54.018835 -2.17181,0 -170.621871,107.006281 -174.658794,110.950331 -2.150215,2.10074 92.135524,1.05415 150.237284,-1.66768 z m 216.29831,1.57044 C 434.92267,127.59867 266.87772,20.827119 264.74476,20.827119 c -1.47575,0 -2.23629,18.445479 -2.23629,54.237288 v 54.237283 l 10.30509,0.30257 c 133.94352,3.93268 168.80924,4.36765 166.4,2.07595 z"
     id="path3709"
     inkscape:connector-curvature="0" />
  <path
     style="fill:#000000;fill-opacity:0;stroke-width:2.16949153"
     d="M 0,256.21695 V 1.3016949 H 256 512 V 256.21695 511.1322 H 256 0 Z m 313.21602,174.77647 c 30.57864,-33.33734 55.59754,-61.16107 55.59754,-61.83051 0,-0.66942 -50.7661,-1.21715 -112.81356,-1.21715 -62.04746,0 -112.81356,0.54773 -112.81356,1.21715 0,1.94387 111.02258,122.44387 112.81356,122.44387 0.89016,0 26.63736,-27.276 57.21602,-60.61336 z m -107.39105,28.61336 c -2.48507,-3.16869 -68.06959,-75.36065 -79.94613,-88.00046 -3.45746,-3.67965 -5.46832,-3.7607 -31.257817,-1.26015 -21.985512,2.13175 -26.994097,3.21402 -24.75285,5.34878 7.581922,7.22163 61.447447,39.46598 62.657847,37.50749 0.77285,-1.25049 3.21586,0.32317 5.61531,3.61706 3.84739,5.28163 64.26028,46.07267 68.76838,46.43272 1.04102,0.0831 0.55288,-1.5573 -1.08474,-3.64544 z M 342.32094,440.2949 c 42.7356,-27.23888 37.56206,-23.5169 38.13741,-27.43702 0.57207,-3.89771 13.26271,-14.94248 15.0805,-13.12466 0.71147,0.71146 -0.8615,3.09243 -3.4955,5.29104 -9.97593,8.32694 -0.50686,3.56673 24.5691,-12.35115 14.29005,-9.07117 26.44682,-17.2452 27.015,-18.16457 0.56819,-0.91934 -6.02571,-2.31517 -14.65311,-3.10181 -8.62742,-0.78666 -21.0557,-1.9564 -27.61841,-2.59944 l -11.9322,-1.16916 -18.18166,20.22161 c -9.99991,11.12188 -28.04598,30.82644 -40.10238,43.78787 -22.09239,23.75077 -28.73861,31.75578 -26.36549,31.75578 0.7103,0 17.60634,-10.39881 37.54674,-23.10849 z M 88.834269,356.853 c 13.785221,-1.32814 25.310321,-2.63207 25.611331,-2.89759 0.4064,-0.35849 -52.396003,-144.67832 -60.762873,-166.07744 -0.699808,-1.78983 -1.349454,36.04067 -1.443656,84.06779 l -0.171274,87.32204 h 5.851218 c 3.218172,0 17.130036,-1.08666 30.915254,-2.4148 z M 459.76092,271.94576 c -0.0942,-48.02712 -0.74383,-85.85762 -1.44364,-84.06779 -8.56813,21.91384 -61.16856,165.73574 -60.76288,166.13992 0.84681,0.84363 40.51488,4.61492 52.07272,4.9506 l 10.30508,0.29931 z m -86.60838,79.69094 c 0,-2.64253 -115.59272,-198.4706 -117.15254,-198.4706 -1.55982,0 -117.15254,195.82807 -117.15254,198.4706 0,0.61743 52.71864,1.12262 117.15254,1.12262 64.4339,0 117.15254,-0.50519 117.15254,-1.12262 z M 181.2313,250.79322 c 28.25061,-48.32542 53.85291,-92.1131 56.89402,-97.30594 l 5.52928,-9.44153 -85.48831,1.5889 c -47.01858,0.87389 -89.538485,2.19377 -94.488681,2.93305 l -9.000357,1.34416 34.018122,92.20339 c 18.709966,50.71187 34.751456,94.07512 35.647746,96.36279 0.97863,2.49778 2.40738,3.36444 3.57654,2.16949 1.07079,-1.09445 25.06103,-41.52889 53.31164,-89.85431 z m 241.40279,-6.50847 c 33.49673,-90.93098 34.59213,-94.42039 30.03472,-95.6755 -7.60205,-2.09359 -184.24565,-4.68128 -183.10257,-2.68231 2.73128,4.77639 86.50505,148.12657 99.76529,170.71423 8.30203,14.14179 15.86935,24.88077 16.81627,23.86441 0.94691,-1.01637 17.36573,-44.31575 36.48629,-96.22083 z M 222.91525,130.10977 249.49153,128.86479 V 74.845954 c 0,-34.319872 -0.78577,-54.018835 -2.15477,-54.018835 -2.17181,0 -170.621871,107.006281 -174.658794,110.950331 -2.150215,2.10074 92.135524,1.05415 150.237284,-1.66768 z m 216.29831,1.57044 C 434.92267,127.59867 266.87772,20.827119 264.74476,20.827119 c -1.47575,0 -2.23629,18.445479 -2.23629,54.237288 v 54.237283 l 10.30509,0.30257 c 133.94352,3.93268 168.80924,4.36765 166.4,2.07595 z"
     id="path3711"
     inkscape:connector-curvature="0" />
  <path
     style="fill:#000000;fill-opacity:0;stroke-width:2.16949153"
     d="M 1.0847458,256.21695 V 1.3016949 H 256 510.91525 V 256.21695 511.1322 H 256 1.0847458 Z M 314.32982,429.77627 369.9441,369.03051 313.66708,368.4524 c -30.95237,-0.31793 -82.2357,-0.31793 -113.96298,0 l -57.68593,0.57811 55.90617,61.21663 c 30.7484,33.66914 57.0053,61.00473 58.34867,60.74576 1.34337,-0.25897 27.46893,-27.80646 58.05681,-61.21663 z m -112.82841,24.40678 c -4.81687,-5.07119 -24.73202,-26.65018 -44.25589,-47.95336 l -35.49795,-38.73299 -9.89073,1.24051 c -5.43991,0.68231 -17.45684,1.89427 -26.704298,2.69328 -9.247457,0.799 -16.799581,2.05027 -16.782494,2.78061 0.04014,1.71527 61.524652,41.09883 62.650972,40.13074 0.46834,-0.40255 -0.40298,-2.2435 -1.93627,-4.09099 -1.53329,-1.8475 -2.29847,-3.84844 -1.70039,-4.44651 0.59808,-0.59808 4.6465,3.256 8.9965,8.56459 5.0784,6.19752 18.97041,16.69782 38.81496,29.33836 16.99823,10.8275 31.84135,19.68855 32.9847,19.69122 1.14335,0.002 -1.86225,-4.14427 -6.67911,-9.21546 z m 141.29782,-14.33906 c 20.27398,-12.95768 36.86179,-24.917 36.86179,-26.57627 0,-1.65929 2.75883,-5.1282 6.13074,-7.70872 3.37191,-2.58053 7.49,-6.48561 9.15133,-8.67797 1.77571,-2.34329 3.04905,-2.86844 3.08962,-1.27425 0.038,1.49153 -1.96491,4.74576 -4.45078,7.23163 -2.48589,2.48589 -4.12013,4.91943 -3.63167,5.40789 1.11894,1.11894 53.71047,-32.22562 53.71065,-34.05412 6e-5,-0.74073 -7.07786,-1.98295 -15.72871,-2.7605 -8.65084,-0.77752 -20.67349,-1.96985 -26.71698,-2.6496 l -10.98819,-1.23589 -21.01181,22.69047 c -11.55651,12.47976 -21.01183,23.37169 -21.01183,24.20426 0,0.83258 -2.75432,3.83141 -6.12074,6.66405 -8.91568,7.50203 -40.17254,42.29842 -37.99581,42.29842 1.01782,0 18.4384,-10.60174 38.71239,-23.5594 z M 102.50847,355.63286 c 6.26441,-0.71578 11.38984,-2.10178 11.38984,-3.07997 0,-2.54127 -58.103258,-159.9074 -60.658966,-164.28796 -1.411918,-2.42007 -2.146476,25.74794 -2.190321,83.99211 l -0.06597,87.63331 20.067796,-1.47801 c 11.037289,-0.8129 25.193221,-2.06368 31.457621,-2.77948 z m 358.4425,-83.6871 c -0.0438,-58.04105 -0.7783,-86.10106 -2.19031,-83.68083 -2.60205,4.45999 -60.65897,161.77049 -60.65897,164.36099 0,1.91369 31.4844,5.78172 51.52543,6.33016 l 11.38983,0.31172 -0.0659,-87.32204 z m -89.31019,75.93221 c -1.70256,-2.68475 -28.32738,-48.12338 -59.16631,-100.97473 -30.83893,-52.85136 -56.74143,-95.31916 -57.5611,-94.37288 -0.81968,0.94627 -25.67973,43.21201 -55.24453,93.92388 -29.56482,50.71186 -55.66801,95.37627 -58.00711,99.25423 l -4.2529,7.05085 H 256.07257 374.73631 Z M 185.15982,244.11266 c 31.4379,-53.76628 56.61463,-98.30205 55.94829,-98.9684 -1.64508,-1.64507 -183.105739,2.44885 -184.826751,4.16986 -1.500438,1.50044 68.420461,192.61076 70.457351,192.57657 0.69371,-0.0109 26.98321,-44.01176 58.42111,-97.77803 z m 236.64377,2.18331 c 19.40456,-52.58875 34.62063,-96.27688 33.81354,-97.08475 -1.74429,-1.74592 -183.11337,-5.67881 -184.78523,-4.00697 -1.26906,1.26907 112.40218,196.6524 114.4294,196.68644 0.69372,0.0109 17.13775,-43.00598 36.54229,-95.59472 z M 221.83051,130.10752 248.40678,128.86479 V 74.613842 c 0,-44.927603 -0.50855,-54.055796 -2.95919,-53.115402 -5.18914,1.991263 -170.479001,108.0216 -171.848592,110.23764 -1.299875,2.10324 89.838652,1.10194 148.231512,-1.62856 z m 217.49152,1.59578 c 0,-1.06556 -1.22524,-2.40755 -2.72277,-2.98221 -1.49752,-0.57465 -39.5594,-24.62351 -84.58195,-53.441914 C 306.99474,46.460774 268.681,22.315264 266.87566,21.622489 c -2.87655,-1.103838 -3.28244,5.475838 -3.28244,53.209806 v 54.469395 l 10.30509,0.30257 c 132.78535,3.89867 165.42372,4.31282 165.42372,2.09904 z"
     id="path4518"
     inkscape:connector-curvature="0" />
  <path
     style="fill:#000000;fill-opacity:0;stroke-width:2.16949153"
     d="M 1.0847458,256.21695 V 1.3016949 H 256 510.91525 V 256.21695 511.1322 H 256 1.0847458 Z M 314.32982,429.77627 369.9441,369.03051 313.66708,368.4524 c -30.95237,-0.31793 -82.2357,-0.31793 -113.96298,0 l -57.68593,0.57811 55.90617,61.21663 c 30.7484,33.66914 57.0053,61.00473 58.34867,60.74576 1.34337,-0.25897 27.46893,-27.80646 58.05681,-61.21663 z m -112.82841,24.40678 c -4.81687,-5.07119 -24.73202,-26.65018 -44.25589,-47.95336 l -35.49795,-38.73299 -9.89073,1.24051 c -5.43991,0.68231 -17.45684,1.89427 -26.704298,2.69328 -9.247457,0.799 -16.799581,2.05027 -16.782494,2.78061 0.04014,1.71527 61.524652,41.09883 62.650972,40.13074 0.46834,-0.40255 -0.40298,-2.2435 -1.93627,-4.09099 -1.53329,-1.8475 -2.29847,-3.84844 -1.70039,-4.44651 0.59808,-0.59808 4.6465,3.256 8.9965,8.56459 5.0784,6.19752 18.97041,16.69782 38.81496,29.33836 16.99823,10.8275 31.84135,19.68855 32.9847,19.69122 1.14335,0.002 -1.86225,-4.14427 -6.67911,-9.21546 z m 141.29782,-14.33906 c 20.27398,-12.95768 36.86179,-24.917 36.86179,-26.57627 0,-1.65929 2.75883,-5.1282 6.13074,-7.70872 3.37191,-2.58053 7.49,-6.48561 9.15133,-8.67797 1.77571,-2.34329 3.04905,-2.86844 3.08962,-1.27425 0.038,1.49153 -1.96491,4.74576 -4.45078,7.23163 -2.48589,2.48589 -4.12013,4.91943 -3.63167,5.40789 1.11894,1.11894 53.71047,-32.22562 53.71065,-34.05412 6e-5,-0.74073 -7.07786,-1.98295 -15.72871,-2.7605 -8.65084,-0.77752 -20.67349,-1.96985 -26.71698,-2.6496 l -10.98819,-1.23589 -21.01181,22.69047 c -11.55651,12.47976 -21.01183,23.37169 -21.01183,24.20426 0,0.83258 -2.75432,3.83141 -6.12074,6.66405 -8.91568,7.50203 -40.17254,42.29842 -37.99581,42.29842 1.01782,0 18.4384,-10.60174 38.71239,-23.5594 z M 102.50847,355.63286 c 6.26441,-0.71578 11.38984,-2.10178 11.38984,-3.07997 0,-2.54127 -58.103258,-159.9074 -60.658966,-164.28796 -1.411918,-2.42007 -2.146476,25.74794 -2.190321,83.99211 l -0.06597,87.63331 20.067796,-1.47801 c 11.037289,-0.8129 25.193221,-2.06368 31.457621,-2.77948 z m 358.4425,-83.6871 c -0.0438,-58.04105 -0.7783,-86.10106 -2.19031,-83.68083 -2.60205,4.45999 -60.65897,161.77049 -60.65897,164.36099 0,1.91369 31.4844,5.78172 51.52543,6.33016 l 11.38983,0.31172 -0.0659,-87.32204 z m -89.31019,75.93221 c -1.70256,-2.68475 -28.32738,-48.12338 -59.16631,-100.97473 -30.83893,-52.85136 -56.74143,-95.31916 -57.5611,-94.37288 -0.81968,0.94627 -25.67973,43.21201 -55.24453,93.92388 -29.56482,50.71186 -55.66801,95.37627 -58.00711,99.25423 l -4.2529,7.05085 H 256.07257 374.73631 Z M 185.15982,244.11266 c 31.4379,-53.76628 56.61463,-98.30205 55.94829,-98.9684 -1.64508,-1.64507 -183.105739,2.44885 -184.826751,4.16986 -1.500438,1.50044 68.420461,192.61076 70.457351,192.57657 0.69371,-0.0109 26.98321,-44.01176 58.42111,-97.77803 z m 236.64377,2.18331 c 19.40456,-52.58875 34.62063,-96.27688 33.81354,-97.08475 -1.74429,-1.74592 -183.11337,-5.67881 -184.78523,-4.00697 -1.26906,1.26907 112.40218,196.6524 114.4294,196.68644 0.69372,0.0109 17.13775,-43.00598 36.54229,-95.59472 z M 221.83051,130.10752 248.40678,128.86479 V 74.613842 c 0,-44.927603 -0.50855,-54.055796 -2.95919,-53.115402 -5.18914,1.991263 -170.479001,108.0216 -171.848592,110.23764 -1.299875,2.10324 89.838652,1.10194 148.231512,-1.62856 z m 217.49152,1.59578 c 0,-1.06556 -1.22524,-2.40755 -2.72277,-2.98221 -1.49752,-0.57465 -39.5594,-24.62351 -84.58195,-53.441914 C 306.99474,46.460774 268.681,22.315264 266.87566,21.622489 c -2.87655,-1.103838 -3.28244,5.475838 -3.28244,53.209806 v 54.469395 l 10.30509,0.30257 c 132.78535,3.89867 165.42372,4.31282 165.42372,2.09904 z"
     id="path4520"
     inkscape:connector-curvature="0" />
  <path
     style="fill:#000000;fill-opacity:0;stroke-width:2.16949153"
     d="M 1.0847458,256.21695 V 1.3016949 H 256 510.91525 V 256.21695 511.1322 H 256 1.0847458 Z M 314.32982,429.77627 369.9441,369.03051 313.66708,368.4524 c -30.95237,-0.31793 -82.2357,-0.31793 -113.96298,0 l -57.68593,0.57811 55.90617,61.21663 c 30.7484,33.66914 57.0053,61.00473 58.34867,60.74576 1.34337,-0.25897 27.46893,-27.80646 58.05681,-61.21663 z m -112.82841,24.40678 c -4.81687,-5.07119 -24.73202,-26.65018 -44.25589,-47.95336 l -35.49795,-38.73299 -9.89073,1.24051 c -5.43991,0.68231 -17.45684,1.89427 -26.704298,2.69328 -9.247457,0.799 -16.799581,2.05027 -16.782494,2.78061 0.04014,1.71527 61.524652,41.09883 62.650972,40.13074 0.46834,-0.40255 -0.40298,-2.2435 -1.93627,-4.09099 -1.53329,-1.8475 -2.29847,-3.84844 -1.70039,-4.44651 0.59808,-0.59808 4.6465,3.256 8.9965,8.56459 5.0784,6.19752 18.97041,16.69782 38.81496,29.33836 16.99823,10.8275 31.84135,19.68855 32.9847,19.69122 1.14335,0.002 -1.86225,-4.14427 -6.67911,-9.21546 z m 141.29782,-14.33906 c 20.27398,-12.95768 36.86179,-24.917 36.86179,-26.57627 0,-1.65929 2.75883,-5.1282 6.13074,-7.70872 3.37191,-2.58053 7.49,-6.48561 9.15133,-8.67797 1.77571,-2.34329 3.04905,-2.86844 3.08962,-1.27425 0.038,1.49153 -1.96491,4.74576 -4.45078,7.23163 -2.48589,2.48589 -4.12013,4.91943 -3.63167,5.40789 1.11894,1.11894 53.71047,-32.22562 53.71065,-34.05412 6e-5,-0.74073 -7.07786,-1.98295 -15.72871,-2.7605 -8.65084,-0.77752 -20.67349,-1.96985 -26.71698,-2.6496 l -10.98819,-1.23589 -21.01181,22.69047 c -11.55651,12.47976 -21.01183,23.37169 -21.01183,24.20426 0,0.83258 -2.75432,3.83141 -6.12074,6.66405 -8.91568,7.50203 -40.17254,42.29842 -37.99581,42.29842 1.01782,0 18.4384,-10.60174 38.71239,-23.5594 z M 102.50847,355.63286 c 6.26441,-0.71578 11.38984,-2.10178 11.38984,-3.07997 0,-2.54127 -58.103258,-159.9074 -60.658966,-164.28796 -1.411918,-2.42007 -2.146476,25.74794 -2.190321,83.99211 l -0.06597,87.63331 20.067796,-1.47801 c 11.037289,-0.8129 25.193221,-2.06368 31.457621,-2.77948 z m 358.4425,-83.6871 c -0.0438,-58.04105 -0.7783,-86.10106 -2.19031,-83.68083 -2.60205,4.45999 -60.65897,161.77049 -60.65897,164.36099 0,1.91369 31.4844,5.78172 51.52543,6.33016 l 11.38983,0.31172 -0.0659,-87.32204 z m -89.31019,75.93221 c -1.70256,-2.68475 -28.32738,-48.12338 -59.16631,-100.97473 -30.83893,-52.85136 -56.74143,-95.31916 -57.5611,-94.37288 -0.81968,0.94627 -25.67973,43.21201 -55.24453,93.92388 -29.56482,50.71186 -55.66801,95.37627 -58.00711,99.25423 l -4.2529,7.05085 H 256.07257 374.73631 Z M 185.15982,244.11266 c 31.4379,-53.76628 56.61463,-98.30205 55.94829,-98.9684 -1.64508,-1.64507 -183.105739,2.44885 -184.826751,4.16986 -1.500438,1.50044 68.420461,192.61076 70.457351,192.57657 0.69371,-0.0109 26.98321,-44.01176 58.42111,-97.77803 z m 236.64377,2.18331 c 19.40456,-52.58875 34.62063,-96.27688 33.81354,-97.08475 -1.74429,-1.74592 -183.11337,-5.67881 -184.78523,-4.00697 -1.26906,1.26907 112.40218,196.6524 114.4294,196.68644 0.69372,0.0109 17.13775,-43.00598 36.54229,-95.59472 z M 221.83051,130.10752 248.40678,128.86479 V 74.613842 c 0,-44.927603 -0.50855,-54.055796 -2.95919,-53.115402 -5.18914,1.991263 -170.479001,108.0216 -171.848592,110.23764 -1.299875,2.10324 89.838652,1.10194 148.231512,-1.62856 z m 217.49152,1.59578 c 0,-1.06556 -1.22524,-2.40755 -2.72277,-2.98221 -1.49752,-0.57465 -39.5594,-24.62351 -84.58195,-53.441914 C 306.99474,46.460774 268.681,22.315264 266.87566,21.622489 c -2.87655,-1.103838 -3.28244,5.475838 -3.28244,53.209806 v 54.469395 l 10.30509,0.30257 c 132.78535,3.89867 165.42372,4.31282 165.42372,2.09904 z"
     id="path4522"
     inkscape:connector-curvature="0" />
  <path
     style="fill:#000000;fill-opacity:0;stroke-width:2.16949153"
     d="M 1.0847458,256.21695 V 1.3016949 H 256 510.91525 V 256.21695 511.1322 H 256 1.0847458 Z M 314.32982,429.77627 369.9441,369.03051 313.66708,368.4524 c -30.95237,-0.31793 -82.2357,-0.31793 -113.96298,0 l -57.68593,0.57811 55.90617,61.21663 c 30.7484,33.66914 57.0053,61.00473 58.34867,60.74576 1.34337,-0.25897 27.46893,-27.80646 58.05681,-61.21663 z m -112.82841,24.40678 c -4.81687,-5.07119 -24.73202,-26.65018 -44.25589,-47.95336 l -35.49795,-38.73299 -9.89073,1.24051 c -5.43991,0.68231 -17.45684,1.89427 -26.704298,2.69328 -9.247457,0.799 -16.799581,2.05027 -16.782494,2.78061 0.04014,1.71527 61.524652,41.09883 62.650972,40.13074 0.46834,-0.40255 -0.40298,-2.2435 -1.93627,-4.09099 -1.53329,-1.8475 -2.29847,-3.84844 -1.70039,-4.44651 0.59808,-0.59808 4.6465,3.256 8.9965,8.56459 5.0784,6.19752 18.97041,16.69782 38.81496,29.33836 16.99823,10.8275 31.84135,19.68855 32.9847,19.69122 1.14335,0.002 -1.86225,-4.14427 -6.67911,-9.21546 z m 141.29782,-14.33906 c 20.27398,-12.95768 36.86179,-24.917 36.86179,-26.57627 0,-1.65929 2.75883,-5.1282 6.13074,-7.70872 3.37191,-2.58053 7.49,-6.48561 9.15133,-8.67797 1.77571,-2.34329 3.04905,-2.86844 3.08962,-1.27425 0.038,1.49153 -1.96491,4.74576 -4.45078,7.23163 -2.48589,2.48589 -4.12013,4.91943 -3.63167,5.40789 1.11894,1.11894 53.71047,-32.22562 53.71065,-34.05412 6e-5,-0.74073 -7.07786,-1.98295 -15.72871,-2.7605 -8.65084,-0.77752 -20.67349,-1.96985 -26.71698,-2.6496 l -10.98819,-1.23589 -21.01181,22.69047 c -11.55651,12.47976 -21.01183,23.37169 -21.01183,24.20426 0,0.83258 -2.75432,3.83141 -6.12074,6.66405 -8.91568,7.50203 -40.17254,42.29842 -37.99581,42.29842 1.01782,0 18.4384,-10.60174 38.71239,-23.5594 z M 102.50847,355.63286 c 6.26441,-0.71578 11.38984,-2.10178 11.38984,-3.07997 0,-2.54127 -58.103258,-159.9074 -60.658966,-164.28796 -1.411918,-2.42007 -2.146476,25.74794 -2.190321,83.99211 l -0.06597,87.63331 20.067796,-1.47801 c 11.037289,-0.8129 25.193221,-2.06368 31.457621,-2.77948 z m 358.4425,-83.6871 c -0.0438,-58.04105 -0.7783,-86.10106 -2.19031,-83.68083 -2.60205,4.45999 -60.65897,161.77049 -60.65897,164.36099 0,1.91369 31.4844,5.78172 51.52543,6.33016 l 11.38983,0.31172 -0.0659,-87.32204 z m -89.31019,75.93221 c -1.70256,-2.68475 -28.32738,-48.12338 -59.16631,-100.97473 -30.83893,-52.85136 -56.74143,-95.31916 -57.5611,-94.37288 -0.81968,0.94627 -25.67973,43.21201 -55.24453,93.92388 -29.56482,50.71186 -55.66801,95.37627 -58.00711,99.25423 l -4.2529,7.05085 H 256.07257 374.73631 Z M 185.15982,244.11266 c 31.4379,-53.76628 56.61463,-98.30205 55.94829,-98.9684 -1.64508,-1.64507 -183.105739,2.44885 -184.826751,4.16986 -1.500438,1.50044 68.420461,192.61076 70.457351,192.57657 0.69371,-0.0109 26.98321,-44.01176 58.42111,-97.77803 z m 236.64377,2.18331 c 19.40456,-52.58875 34.62063,-96.27688 33.81354,-97.08475 -1.74429,-1.74592 -183.11337,-5.67881 -184.78523,-4.00697 -1.26906,1.26907 112.40218,196.6524 114.4294,196.68644 0.69372,0.0109 17.13775,-43.00598 36.54229,-95.59472 z M 221.83051,130.10752 248.40678,128.86479 V 74.613842 c 0,-44.927603 -0.50855,-54.055796 -2.95919,-53.115402 -5.18914,1.991263 -170.479001,108.0216 -171.848592,110.23764 -1.299875,2.10324 89.838652,1.10194 148.231512,-1.62856 z m 217.49152,1.59578 c 0,-1.06556 -1.22524,-2.40755 -2.72277,-2.98221 -1.49752,-0.57465 -39.5594,-24.62351 -84.58195,-53.441914 C 306.99474,46.460774 268.681,22.315264 266.87566,21.622489 c -2.87655,-1.103838 -3.28244,5.475838 -3.28244,53.209806 v 54.469395 l 10.30509,0.30257 c 132.78535,3.89867 165.42372,4.31282 165.42372,2.09904 z"
     id="path4524"
     inkscape:connector-curvature="0" />
  <path
     style="fill:#000000;fill-opacity:0;stroke-width:2.16949153"
     d="M 1.0847458,256.21695 V 1.3016949 H 256 510.91525 V 256.21695 511.1322 H 256 1.0847458 Z M 314.32982,429.77627 369.9441,369.03051 313.66708,368.4524 c -30.95237,-0.31793 -82.2357,-0.31793 -113.96298,0 l -57.68593,0.57811 55.90617,61.21663 c 30.7484,33.66914 57.0053,61.00473 58.34867,60.74576 1.34337,-0.25897 27.46893,-27.80646 58.05681,-61.21663 z m -112.82841,24.40678 c -4.81687,-5.07119 -24.73202,-26.65018 -44.25589,-47.95336 l -35.49795,-38.73299 -9.89073,1.24051 c -5.43991,0.68231 -17.45684,1.89427 -26.704298,2.69328 -9.247457,0.799 -16.799581,2.05027 -16.782494,2.78061 0.04014,1.71527 61.524652,41.09883 62.650972,40.13074 0.46834,-0.40255 -0.40298,-2.2435 -1.93627,-4.09099 -1.53329,-1.8475 -2.29847,-3.84844 -1.70039,-4.44651 0.59808,-0.59808 4.6465,3.256 8.9965,8.56459 5.0784,6.19752 18.97041,16.69782 38.81496,29.33836 16.99823,10.8275 31.84135,19.68855 32.9847,19.69122 1.14335,0.002 -1.86225,-4.14427 -6.67911,-9.21546 z m 141.29782,-14.33906 c 20.27398,-12.95768 36.86179,-24.917 36.86179,-26.57627 0,-1.65929 2.75883,-5.1282 6.13074,-7.70872 3.37191,-2.58053 7.49,-6.48561 9.15133,-8.67797 1.77571,-2.34329 3.04905,-2.86844 3.08962,-1.27425 0.038,1.49153 -1.96491,4.74576 -4.45078,7.23163 -2.48589,2.48589 -4.12013,4.91943 -3.63167,5.40789 1.11894,1.11894 53.71047,-32.22562 53.71065,-34.05412 6e-5,-0.74073 -7.07786,-1.98295 -15.72871,-2.7605 -8.65084,-0.77752 -20.67349,-1.96985 -26.71698,-2.6496 l -10.98819,-1.23589 -21.01181,22.69047 c -11.55651,12.47976 -21.01183,23.37169 -21.01183,24.20426 0,0.83258 -2.75432,3.83141 -6.12074,6.66405 -8.91568,7.50203 -40.17254,42.29842 -37.99581,42.29842 1.01782,0 18.4384,-10.60174 38.71239,-23.5594 z M 102.50847,355.63286 c 6.26441,-0.71578 11.38984,-2.10178 11.38984,-3.07997 0,-2.54127 -58.103258,-159.9074 -60.658966,-164.28796 -1.411918,-2.42007 -2.146476,25.74794 -2.190321,83.99211 l -0.06597,87.63331 20.067796,-1.47801 c 11.037289,-0.8129 25.193221,-2.06368 31.457621,-2.77948 z m 358.4425,-83.6871 c -0.0438,-58.04105 -0.7783,-86.10106 -2.19031,-83.68083 -2.60205,4.45999 -60.65897,161.77049 -60.65897,164.36099 0,1.91369 31.4844,5.78172 51.52543,6.33016 l 11.38983,0.31172 -0.0659,-87.32204 z m -89.31019,75.93221 c -1.70256,-2.68475 -28.32738,-48.12338 -59.16631,-100.97473 -30.83893,-52.85136 -56.74143,-95.31916 -57.5611,-94.37288 -0.81968,0.94627 -25.67973,43.21201 -55.24453,93.92388 -29.56482,50.71186 -55.66801,95.37627 -58.00711,99.25423 l -4.2529,7.05085 H 256.07257 374.73631 Z M 185.15982,244.11266 c 31.4379,-53.76628 56.61463,-98.30205 55.94829,-98.9684 -1.64508,-1.64507 -183.105739,2.44885 -184.826751,4.16986 -1.500438,1.50044 68.420461,192.61076 70.457351,192.57657 0.69371,-0.0109 26.98321,-44.01176 58.42111,-97.77803 z m 236.64377,2.18331 c 19.40456,-52.58875 34.62063,-96.27688 33.81354,-97.08475 -1.74429,-1.74592 -183.11337,-5.67881 -184.78523,-4.00697 -1.26906,1.26907 112.40218,196.6524 114.4294,196.68644 0.69372,0.0109 17.13775,-43.00598 36.54229,-95.59472 z M 221.83051,130.10752 248.40678,128.86479 V 74.613842 c 0,-44.927603 -0.50855,-54.055796 -2.95919,-53.115402 -5.18914,1.991263 -170.479001,108.0216 -171.848592,110.23764 -1.299875,2.10324 89.838652,1.10194 148.231512,-1.62856 z m 217.49152,1.59578 c 0,-1.06556 -1.22524,-2.40755 -2.72277,-2.98221 -1.49752,-0.57465 -39.5594,-24.62351 -84.58195,-53.441914 C 306.99474,46.460774 268.681,22.315264 266.87566,21.622489 c -2.87655,-1.103838 -3.28244,5.475838 -3.28244,53.209806 v 54.469395 l 10.30509,0.30257 c 132.78535,3.89867 165.42372,4.31282 165.42372,2.09904 z"
     id="path4526"
     inkscape:connector-curvature="0" />
  <g
     id="g4533"
     clip-path="url(#clipPath4535)"
     style="fill:url(#Strips1_1);fill-opacity:1.0">
    <g
       inkscape:label="Clip"
       id="g4531"
       style="fill:url(#Strips1_1);fill-opacity:1.0" />
  </g>
</svg>
