<?xml version="1.0" encoding="UTF-8" standalone="no"?>
<!-- Created with Inkscape (http://www.inkscape.org/) -->

<svg
   xmlns:dc="http://purl.org/dc/elements/1.1/"
   xmlns:cc="http://creativecommons.org/ns#"
   xmlns:rdf="http://www.w3.org/1999/02/22-rdf-syntax-ns#"
   xmlns:svg="http://www.w3.org/2000/svg"
   xmlns="http://www.w3.org/2000/svg"
   xmlns:sodipodi="http://sodipodi.sourceforge.net/DTD/sodipodi-0.dtd"
   xmlns:inkscape="http://www.inkscape.org/namespaces/inkscape"
   width="200mm"
   height="200mm"
   viewBox="0 0 200 200"
   version="1.1"
   id="svg8"
   inkscape:version="0.92.2 (5c3e80d, 2017-08-06)"
   sodipodi:docname="dragon.svg">
  <defs
     id="defs2">
    <clipPath
       id="clipPath26"
       clipPathUnits="userSpaceOnUse">
      <path
         inkscape:connector-curvature="0"
         id="path24"
         d="M 0,800 H 800 V 0 H 0 Z" />
    </clipPath>
    <clipPath
       clipPathUnits="userSpaceOnUse"
       id="clipPath4727">
      <rect
         id="rect4729"
         width="566.92914"
         height="566.92914"
         x="117.00737"
         y="-708.89624"
         style="fill:#000000;fill-opacity:0.09045225;stroke-width:0.75"
         transform="scale(1,-1)" />
    </clipPath>
  </defs>
  <sodipodi:namedview
     id="base"
     pagecolor="#ffffff"
     bordercolor="#666666"
     borderopacity="1.0"
     inkscape:pageopacity="0.0"
     inkscape:pageshadow="2"
     inkscape:zoom="0.35"
     inkscape:cx="-64.285714"
     inkscape:cy="560"
     inkscape:document-units="mm"
     inkscape:current-layer="layer1"
     showgrid="false"
     inkscape:window-width="1536"
     inkscape:window-height="801"
     inkscape:window-x="-8"
     inkscape:window-y="-8"
     inkscape:window-maximized="1" />
  <metadata
     id="metadata5">
    <rdf:RDF>
      <cc:Work
         rdf:about="">
        <dc:format>image/svg+xml</dc:format>
        <dc:type
           rdf:resource="http://purl.org/dc/dcmitype/StillImage" />
        <dc:title></dc:title>
      </cc:Work>
    </rdf:RDF>
  </metadata>
  <g
     inkscape:label="Layer 1"
     inkscape:groupmode="layer"
     id="layer1"
     transform="translate(0,-97)">
    <g
       transform="matrix(0.35277777,0,0,-0.35277777,-38.700753,341.98284)"
       inkscape:label="dragon 01"
       id="g18"
       clip-path="url(#clipPath4727)">
      <g
         id="g20">
        <g
           clip-path="url(#clipPath26)"
           id="g22">
          <g
             transform="translate(397.4819,41.5557)"
             id="g28">
            <path
               inkscape:connector-curvature="0"
               id="path30"
               style="fill:#1d1d1b;fill-opacity:1;fill-rule:nonzero;stroke:none"
               d="m 0,0 h 0.782 v 0.981 c 0,1.035 0.127,1.842 0.389,2.45 0.255,0.608 0.702,1.047 1.32,1.325 0.618,0.272 1.473,0.41 2.554,0.41 1.917,0 2.871,-0.465 2.871,-1.41 C 7.916,3.454 7.811,3.194 7.614,2.979 7.414,2.766 7.18,2.654 6.908,2.654 6.78,2.654 6.557,2.681 6.24,2.732 5.941,2.773 5.667,2.803 5.453,2.803 4.861,2.803 4.482,2.626 4.31,2.277 4.147,1.93 4.061,1.431 4.061,0.779 V 0 h 0.8 c 1.252,0 1.875,-0.379 1.875,-1.133 0,-0.529 -0.163,-0.87 -0.498,-1.015 -0.333,-0.146 -0.79,-0.218 -1.377,-0.218 h -0.8 v -8.689 c 0,-0.643 -0.15,-1.139 -0.467,-1.474 -0.306,-0.346 -0.7,-0.515 -1.194,-0.515 -0.46,0 -0.847,0.169 -1.158,0.515 -0.307,0.335 -0.46,0.831 -0.46,1.474 v 8.689 h -0.904 c -0.488,0 -0.865,0.106 -1.13,0.33 -0.262,0.218 -0.395,0.504 -0.395,0.856 C -1.647,-0.39 -1.099,0 0,0" />
          </g>
          <g
             transform="translate(408.2148,33.2412)"
             id="g32">
            <path
               inkscape:connector-curvature="0"
               id="path34"
               style="fill:#1d1d1b;fill-opacity:1;fill-rule:nonzero;stroke:none"
               d="m 0,0 v -2.74 c 0,-0.662 -0.163,-1.163 -0.473,-1.49 -0.313,-0.338 -0.706,-0.499 -1.183,-0.499 -0.484,0 -0.87,0.164 -1.172,0.506 -0.304,0.332 -0.457,0.828 -0.457,1.483 v 9.135 c 0,1.475 0.532,2.21 1.595,2.21 0.547,0 0.937,-0.173 1.184,-0.516 C -0.27,7.74 -0.135,7.233 -0.108,6.556 0.281,7.233 0.681,7.74 1.092,8.089 1.51,8.432 2.055,8.605 2.746,8.605 3.439,8.605 4.102,8.432 4.751,8.089 5.397,7.74 5.725,7.286 5.725,6.72 5.725,6.317 5.587,5.981 5.31,5.725 5.031,5.463 4.74,5.335 4.419,5.335 4.294,5.335 4.003,5.408 3.543,5.562 3.081,5.707 2.676,5.776 2.325,5.776 1.848,5.776 1.452,5.646 1.151,5.402 0.845,5.146 0.605,4.774 0.439,4.283 0.271,3.784 0.156,3.189 0.094,2.507 0.029,1.818 0,0.984 0,0" />
          </g>
          <g
             transform="translate(416.8721,36.2363)"
             id="g36">
            <path
               inkscape:connector-curvature="0"
               id="path38"
               style="fill:#1d1d1b;fill-opacity:1;fill-rule:nonzero;stroke:none"
               d="M 0,0 H 5.945 C 5.867,1.119 5.563,1.956 5.042,2.514 4.517,3.067 3.826,3.346 2.966,3.346 2.156,3.346 1.48,3.067 0.956,2.498 0.432,1.935 0.112,1.102 0,0 M 6.416,-1.867 H 0 c 0.008,-0.74 0.156,-1.401 0.452,-1.969 0.291,-0.566 0.678,-0.995 1.164,-1.286 0.49,-0.286 1.021,-0.431 1.605,-0.431 0.392,0 0.748,0.044 1.073,0.143 0.327,0.088 0.643,0.233 0.945,0.429 0.304,0.197 0.582,0.405 0.839,0.63 0.257,0.224 0.589,0.531 0.997,0.914 0.172,0.141 0.41,0.216 0.723,0.216 0.335,0 0.604,-0.091 0.817,-0.275 0.211,-0.19 0.31,-0.444 0.31,-0.782 0,-0.298 -0.112,-0.642 -0.341,-1.038 C 8.348,-5.72 7.997,-6.096 7.524,-6.46 7.06,-6.82 6.468,-7.13 5.759,-7.363 5.052,-7.607 4.236,-7.725 3.317,-7.725 c -2.106,0 -3.743,0.595 -4.909,1.798 -1.174,1.205 -1.759,2.836 -1.759,4.891 0,0.971 0.146,1.87 0.434,2.698 0.286,0.834 0.709,1.538 1.266,2.133 0.55,0.592 1.228,1.049 2.036,1.363 0.81,0.317 1.701,0.473 2.69,0.473 1.283,0 2.382,-0.268 3.296,-0.816 C 7.291,4.28 7.984,3.579 8.434,2.725 8.889,1.862 9.119,0.992 9.119,0.102 9.119,-0.717 8.881,-1.255 8.41,-1.499 7.937,-1.743 7.271,-1.867 6.416,-1.867" />
          </g>
          <g
             transform="translate(430.5107,36.2363)"
             id="g40">
            <path
               inkscape:connector-curvature="0"
               id="path42"
               style="fill:#1d1d1b;fill-opacity:1;fill-rule:nonzero;stroke:none"
               d="M 0,0 H 5.948 C 5.87,1.119 5.559,1.956 5.039,2.514 4.515,3.067 3.823,3.346 2.964,3.346 2.148,3.346 1.48,3.067 0.953,2.498 0.426,1.935 0.111,1.102 0,0 M 6.413,-1.867 H 0 c 0.008,-0.74 0.158,-1.401 0.449,-1.969 0.294,-0.566 0.684,-0.995 1.166,-1.286 0.481,-0.286 1.022,-0.431 1.603,-0.431 0.389,0 0.754,0.044 1.073,0.143 0.327,0.088 0.639,0.233 0.95,0.429 0.299,0.197 0.579,0.405 0.839,0.63 0.252,0.224 0.585,0.531 0.992,0.914 0.172,0.141 0.413,0.216 0.72,0.216 0.34,0 0.613,-0.091 0.823,-0.275 C 8.82,-3.686 8.922,-3.94 8.922,-4.278 8.922,-4.576 8.811,-4.92 8.574,-5.316 8.348,-5.72 7.997,-6.096 7.521,-6.46 7.057,-6.82 6.462,-7.13 5.756,-7.363 5.049,-7.607 4.233,-7.725 3.312,-7.725 c -2.104,0 -3.743,0.595 -4.912,1.798 -1.169,1.205 -1.755,2.836 -1.755,4.891 0,0.971 0.145,1.87 0.436,2.698 0.291,0.834 0.706,1.538 1.26,2.133 0.553,0.592 1.233,1.049 2.041,1.363 0.807,0.317 1.706,0.473 2.69,0.473 1.279,0 2.38,-0.268 3.305,-0.816 C 7.288,4.28 7.979,3.579 8.431,2.725 8.886,1.862 9.116,0.992 9.116,0.102 9.116,-0.717 8.878,-1.255 8.407,-1.499 7.935,-1.743 7.268,-1.867 6.413,-1.867" />
          </g>
          <g
             transform="translate(450.5332,35.2334)"
             id="g44">
            <path
               inkscape:connector-curvature="0"
               id="path46"
               style="fill:#1d1d1b;fill-opacity:1;fill-rule:nonzero;stroke:none"
               d="m 0,0 c 0,0.87 -0.13,1.61 -0.395,2.231 -0.261,0.623 -0.63,1.094 -1.093,1.423 -0.467,0.335 -0.992,0.504 -1.561,0.504 -0.901,0 -1.668,-0.355 -2.288,-1.064 -0.624,-0.72 -0.928,-1.764 -0.928,-3.151 0,-1.301 0.304,-2.322 0.923,-3.044 0.617,-0.727 1.376,-1.086 2.293,-1.086 0.543,0 1.052,0.159 1.515,0.47 0.465,0.318 0.839,0.79 1.119,1.424 C -0.135,-1.659 0,-0.891 0,0 M -6.426,4.767 V 4.374 c 0.614,0.761 1.26,1.322 1.925,1.673 0.662,0.361 1.418,0.54 2.255,0.54 1.008,0 1.94,-0.262 2.792,-0.779 C 1.396,5.283 2.063,4.522 2.554,3.522 3.05,2.52 3.297,1.335 3.297,-0.033 3.297,-1.041 3.153,-1.971 2.87,-2.815 2.59,-3.659 2.195,-4.366 1.699,-4.942 1.203,-5.509 0.613,-5.953 -0.06,-6.265 c -0.682,-0.3 -1.405,-0.457 -2.186,-0.457 -0.936,0 -1.723,0.188 -2.361,0.562 -0.636,0.374 -1.239,0.931 -1.819,1.654 v -4.922 c 0,-1.439 -0.527,-2.164 -1.571,-2.164 -0.62,0 -1.024,0.188 -1.229,0.556 -0.192,0.38 -0.295,0.917 -0.295,1.634 V 4.751 c 0,0.623 0.132,1.086 0.402,1.399 0.275,0.305 0.652,0.463 1.122,0.463 0.463,0 0.845,-0.158 1.133,-0.472 0.296,-0.323 0.438,-0.775 0.438,-1.374" />
          </g>
          <g
             transform="translate(458.7568,39.9844)"
             id="g48">
            <path
               inkscape:connector-curvature="0"
               id="path50"
               style="fill:#1d1d1b;fill-opacity:1;fill-rule:nonzero;stroke:none"
               d="m 0,0 v -9.483 c 0,-0.655 -0.158,-1.151 -0.47,-1.483 -0.317,-0.343 -0.71,-0.507 -1.192,-0.507 -0.481,0 -0.868,0.169 -1.166,0.515 -0.305,0.348 -0.458,0.839 -0.458,1.475 v 9.386 c 0,0.65 0.153,1.138 0.458,1.463 0.298,0.332 0.685,0.496 1.166,0.496 0.482,0 0.875,-0.164 1.192,-0.496 C -0.158,1.041 0,0.579 0,0 m -1.626,3.387 c -0.457,0 -0.842,0.145 -1.166,0.421 -0.327,0.285 -0.494,0.674 -0.494,1.184 0,0.465 0.169,0.849 0.502,1.151 0.335,0.298 0.719,0.452 1.158,0.452 0.426,0 0.803,-0.138 1.133,-0.404 C -0.166,5.914 0,5.517 0,4.992 0,4.49 -0.164,4.093 -0.483,3.813 -0.803,3.532 -1.185,3.387 -1.626,3.387" />
          </g>
          <g
             transform="translate(469.3252,30.0049)"
             id="g52">
            <path
               inkscape:connector-curvature="0"
               id="path54"
               style="fill:#1d1d1b;fill-opacity:1;fill-rule:nonzero;stroke:none"
               d="M 0,0 -2.891,4.767 -4.67,3.083 v -2.61 c 0,-0.631 -0.169,-1.117 -0.504,-1.452 -0.322,-0.345 -0.712,-0.514 -1.142,-0.514 -0.504,0 -0.905,0.164 -1.19,0.507 -0.289,0.332 -0.434,0.828 -0.434,1.482 v 13.989 c 0,0.725 0.14,1.279 0.42,1.662 0.279,0.385 0.684,0.57 1.204,0.57 0.504,0 0.903,-0.172 1.197,-0.52 0.304,-0.34 0.449,-0.849 0.449,-1.516 V 6.72 l 3.689,3.873 c 0.457,0.474 0.799,0.809 1.046,0.984 0.237,0.174 0.53,0.267 0.872,0.267 0.411,0 0.751,-0.132 1.029,-0.395 0.267,-0.26 0.403,-0.587 0.403,-0.979 0,-0.478 -0.444,-1.121 -1.335,-1.922 L -0.704,6.953 2.66,1.663 C 2.904,1.268 3.083,0.977 3.192,0.771 3.304,0.569 3.355,0.364 3.355,0.187 3.355,-0.337 3.216,-0.74 2.93,-1.049 2.645,-1.345 2.268,-1.493 1.808,-1.493 1.405,-1.493 1.096,-1.392 0.875,-1.169 0.665,-0.95 0.366,-0.561 0,0" />
          </g>
          <g
             transform="translate(476.4502,28.5117)"
             id="g56">
            <path
               inkscape:connector-curvature="0"
               id="path58"
               style="fill:#1d1d1b;fill-opacity:1;fill-rule:nonzero;stroke:none"
               d="m 0,0 c -0.494,0 -0.923,0.161 -1.283,0.48 -0.359,0.315 -0.543,0.767 -0.543,1.346 0,0.488 0.177,0.909 0.519,1.26 0.345,0.351 0.769,0.529 1.273,0.529 0.507,0 0.93,-0.178 1.296,-0.521 C 1.615,2.743 1.797,2.316 1.797,1.826 1.797,1.255 1.615,0.806 1.262,0.485 0.896,0.161 0.478,0 0,0" />
          </g>
          <g
             transform="translate(492.7559,32.5713)"
             id="g60">
            <path
               inkscape:connector-curvature="0"
               id="path62"
               style="fill:#1d1d1b;fill-opacity:1;fill-rule:nonzero;stroke:none"
               d="m 0,0 c 0,-0.407 -0.122,-0.844 -0.366,-1.312 -0.247,-0.464 -0.615,-0.906 -1.117,-1.327 -0.501,-0.418 -1.127,-0.758 -1.894,-1.012 -0.761,-0.258 -1.618,-0.39 -2.565,-0.39 -2.03,0 -3.614,0.595 -4.751,1.771 -1.135,1.182 -1.702,2.771 -1.702,4.755 0,1.349 0.257,2.534 0.783,3.57 0.51,1.031 1.266,1.828 2.254,2.397 0.981,0.564 2.166,0.844 3.527,0.844 0.852,0 1.634,-0.122 2.343,-0.371 0.712,-0.247 1.306,-0.571 1.802,-0.959 0.489,-0.4 0.865,-0.813 1.124,-1.257 C -0.299,6.265 -0.169,5.85 -0.169,5.462 -0.169,5.07 -0.314,4.737 -0.607,4.47 -0.901,4.192 -1.255,4.058 -1.67,4.058 c -0.275,0 -0.499,0.069 -0.678,0.21 -0.184,0.137 -0.384,0.366 -0.608,0.685 -0.398,0.603 -0.818,1.063 -1.257,1.361 -0.433,0.309 -0.992,0.46 -1.665,0.46 -0.961,0 -1.743,-0.379 -2.34,-1.132 -0.593,-0.759 -0.888,-1.795 -0.888,-3.104 0,-0.621 0.078,-1.189 0.231,-1.707 0.147,-0.512 0.363,-0.956 0.657,-1.316 0.291,-0.367 0.636,-0.639 1.044,-0.831 0.41,-0.193 0.86,-0.284 1.343,-0.284 0.665,0 1.221,0.154 1.69,0.457 0.479,0.301 0.889,0.767 1.247,1.395 0.201,0.363 0.416,0.649 0.642,0.857 0.236,0.213 0.524,0.32 0.857,0.32 0.406,0 0.735,-0.154 0.998,-0.457 C -0.13,0.668 0,0.341 0,0" />
          </g>
          <g
             transform="translate(503.6152,35.1768)"
             id="g64">
            <path
               inkscape:connector-curvature="0"
               id="path66"
               style="fill:#1d1d1b;fill-opacity:1;fill-rule:nonzero;stroke:none"
               d="M 0,0 C 0,1.337 -0.296,2.374 -0.883,3.124 -1.47,3.87 -2.26,4.244 -3.255,4.244 -3.896,4.244 -4.46,4.075 -4.95,3.742 -5.438,3.41 -5.812,2.922 -6.078,2.272 -6.34,1.62 -6.478,0.867 -6.478,0 c 0,-0.857 0.13,-1.603 0.387,-2.241 0.268,-0.65 0.639,-1.138 1.127,-1.479 0.486,-0.332 1.055,-0.511 1.709,-0.511 0.995,0 1.785,0.378 2.372,1.129 C -0.296,-2.354 0,-1.317 0,0 m 3.293,0 c 0,-0.977 -0.155,-1.878 -0.451,-2.707 -0.313,-0.825 -0.748,-1.532 -1.33,-2.122 -0.57,-0.592 -1.265,-1.046 -2.063,-1.363 -0.807,-0.312 -1.704,-0.473 -2.704,-0.473 -0.992,0 -1.883,0.161 -2.68,0.48 -0.79,0.315 -1.483,0.777 -2.057,1.37 -0.582,0.602 -1.024,1.306 -1.33,2.122 -0.29,0.812 -0.444,1.709 -0.444,2.693 0,0.994 0.159,1.901 0.457,2.727 0.301,0.829 0.743,1.533 1.315,2.112 0.568,0.587 1.254,1.036 2.059,1.358 0.813,0.315 1.706,0.473 2.68,0.473 0.995,0 1.897,-0.158 2.704,-0.483 C 0.257,5.87 0.948,5.41 1.527,4.82 2.106,4.226 2.543,3.52 2.844,2.709 3.141,1.886 3.293,0.986 3.293,0" />
          </g>
          <g
             transform="translate(519.415,34.9326)"
             id="g68">
            <path
               inkscape:connector-curvature="0"
               id="path70"
               style="fill:#1d1d1b;fill-opacity:1;fill-rule:nonzero;stroke:none"
               d="m 0,0 v -4.356 c 0,-0.694 -0.153,-1.2 -0.468,-1.55 -0.314,-0.346 -0.724,-0.515 -1.239,-0.515 -0.493,0 -0.903,0.169 -1.202,0.515 -0.31,0.35 -0.471,0.856 -0.471,1.55 v 5.223 c 0,0.829 -0.025,1.468 -0.077,1.925 -0.06,0.452 -0.213,0.834 -0.46,1.122 -0.244,0.293 -0.645,0.439 -1.177,0.439 -1.075,0 -1.776,-0.367 -2.119,-1.109 -0.338,-0.73 -0.512,-1.787 -0.512,-3.169 v -4.431 c 0,-0.683 -0.156,-1.195 -0.463,-1.545 -0.308,-0.346 -0.713,-0.52 -1.22,-0.52 -0.498,0 -0.904,0.174 -1.215,0.52 -0.317,0.35 -0.483,0.862 -0.483,1.545 v 9.384 c 0,0.614 0.145,1.086 0.431,1.403 0.285,0.325 0.659,0.483 1.124,0.483 0.449,0 0.822,-0.156 1.125,-0.452 0.299,-0.301 0.449,-0.712 0.449,-1.247 V 4.909 c 0.572,0.675 1.177,1.179 1.829,1.496 0.649,0.322 1.366,0.483 2.158,0.483 0.826,0 1.538,-0.163 2.128,-0.491 0.594,-0.33 1.08,-0.826 1.466,-1.488 0.551,0.667 1.146,1.168 1.778,1.496 0.639,0.322 1.332,0.483 2.103,0.483 0.897,0 1.673,-0.179 2.32,-0.528 0.649,-0.355 1.13,-0.862 1.446,-1.511 0.286,-0.6 0.424,-1.53 0.424,-2.805 v -6.4 c 0,-0.694 -0.156,-1.2 -0.465,-1.55 -0.314,-0.346 -0.722,-0.515 -1.239,-0.515 -0.493,0 -0.904,0.174 -1.221,0.52 -0.316,0.35 -0.47,0.862 -0.47,1.545 V 1.161 C 4.28,1.864 4.249,2.426 4.187,2.852 4.132,3.275 3.963,3.634 3.701,3.922 3.434,4.207 3.03,4.353 2.498,4.353 2.064,4.353 1.659,4.226 1.268,3.969 0.88,3.714 0.576,3.368 0.358,2.938 0.122,2.39 0,1.405 0,0" />
          </g>
          <g
             transform="translate(374.772,27.3633)"
             id="g72">
            <path
               inkscape:connector-curvature="0"
               id="path74"
               style="fill:#1d1d1b;fill-opacity:1;fill-rule:evenodd;stroke:none"
               d="m 0,0 c 0,0 -1.792,0.283 -3.535,2.195 -1.761,1.925 -2.057,3.969 -2.057,3.969 0,0 2.231,-0.53 3.835,-0.704 2.822,-0.322 5.365,-0.143 6.565,-0.013 2.597,0.285 3.978,0.764 4.54,0.904 3.317,0.793 6.504,2.943 6.504,2.943 0,0 0.402,-2.493 -1.473,-5.26 C 13.649,2.956 12.195,1.718 10.517,0.863 4.781,-1.581 0,0 0,0" />
          </g>
          <g
             transform="translate(385.0889,38.5898)"
             id="g76">
            <path
               inkscape:connector-curvature="0"
               id="path78"
               style="fill:#1d1d1b;fill-opacity:1;fill-rule:evenodd;stroke:none"
               d="M 0,0 C -1.189,-0.07 -2.217,0.823 -2.291,2.008 -2.362,3.184 -1.457,4.207 -0.269,4.285 0.919,4.363 1.948,3.457 2.018,2.282 2.096,1.096 1.187,0.075 0,0 m -9.654,-2.427 c -1.888,-0.124 -3.517,1.302 -3.634,3.183 -0.12,1.875 1.319,3.501 3.21,3.617 1.891,0.13 3.521,-1.304 3.634,-3.176 0.121,-1.884 -1.32,-3.504 -3.21,-3.624 M 3.244,2.932 C 2.623,3.68 0.57,7.202 -3.587,7.706 -4.652,7.836 -10.272,7.617 -13.643,4.493 -13.979,4.182 -15.69,2.675 -16.259,-0.12 c -0.442,-2.163 0.283,-4.605 0.283,-4.605 0,0 3.74,-0.777 6.558,-0.707 4.47,0.115 6.715,0.507 9.054,1.213 3.44,1.047 5.875,2.792 5.875,2.792 0,0 -1.649,3.606 -2.267,4.359" />
          </g>
          <g
             transform="translate(386.7148,43.9551)"
             id="g80">
            <path
               inkscape:connector-curvature="0"
               id="path82"
               style="fill:#1d1d1b;fill-opacity:1;fill-rule:evenodd;stroke:none"
               d="m 0,0 1.084,1.307 c 0,0 1.5,-0.741 2.464,-2.132 0.961,-1.382 1.581,-2.65 1.581,-2.65 L 3.34,-4.565 c 0,0 -0.556,1.335 -1.388,2.41 C 1.125,-1.085 0,0 0,0" />
          </g>
          <g
             transform="translate(390.1226,43.0518)"
             id="g84">
            <path
               inkscape:connector-curvature="0"
               id="path86"
               style="fill:#1d1d1b;fill-opacity:1;fill-rule:evenodd;stroke:none"
               d="M 0,0 C 0.28,0.169 0.753,0.189 0.727,0.592 0.709,0.984 0.439,1.766 1.215,2.033 2.006,2.301 1.563,1.8 1.293,1.457 1.023,1.109 1.111,0.903 1.145,0.392 1.174,-0.106 0.818,-0.272 0.286,-0.522 -0.244,-0.776 -0.278,-0.169 0,0" />
          </g>
          <g
             transform="translate(370.2021,42.252)"
             id="g88">
            <path
               inkscape:connector-curvature="0"
               id="path90"
               style="fill:#1d1d1b;fill-opacity:1;fill-rule:evenodd;stroke:none"
               d="M 0,0 C 0,0 -1.257,-1.463 -1.577,-2.782 -1.892,-4.109 -1.83,-5.701 -1.83,-5.701 l -1.862,0.641 c 0,0 -0.105,1.831 0.739,3.312 0.947,1.639 2.149,2.379 2.149,2.379 z" />
          </g>
          <g
             transform="translate(367.4634,40.5869)"
             id="g92">
            <path
               inkscape:connector-curvature="0"
               id="path94"
               style="fill:#1d1d1b;fill-opacity:1;fill-rule:evenodd;stroke:none"
               d="m 0,0 c -0.304,0.2 -0.333,0.673 -0.57,0.979 -0.239,0.314 -0.298,0.125 -0.845,0.125 -0.546,0.002 -0.563,0.256 -0.72,0.387 -0.154,0.137 -0.226,-0.408 -0.226,-0.408 0,0 0.101,-0.465 0.688,-0.499 0.579,-0.036 0.567,0.25 0.821,-0.275 0.247,-0.528 0.748,-0.93 0.748,-0.93 0,0 0.41,0.426 0.104,0.621" />
          </g>
          <g
             transform="translate(377.3437,47.5215)"
             id="g96">
            <path
               inkscape:connector-curvature="0"
               id="path98"
               style="fill:#1d1d1b;fill-opacity:1;fill-rule:evenodd;stroke:none"
               d="M 0,0 C 3.052,0.767 4.963,-0.117 4.963,-0.117 L 4.802,-0.994 c 0,0 -2.234,0.147 -4.004,-0.117 -1.766,-0.252 -2.572,-0.808 -2.572,-0.808 l -0.385,0.878 c 0,0 0.837,0.711 2.159,1.041" />
          </g>
          <g
             transform="translate(378.2593,48.7764)"
             id="g100">
            <path
               inkscape:connector-curvature="0"
               id="path102"
               style="fill:#1d1d1b;fill-opacity:1;fill-rule:evenodd;stroke:none"
               d="M 0,0 0.427,0.158 0.996,-1.366 0.57,-1.524 Z" />
          </g>
          <g
             transform="translate(391.7095,45.9502)"
             id="g104">
            <path
               inkscape:connector-curvature="0"
               id="path106"
               style="fill:#1d1d1b;fill-opacity:1;fill-rule:evenodd;stroke:none"
               d="M 0,0 C 0.435,0.023 0.801,-0.304 0.825,-0.735 0.855,-1.166 0.528,-1.532 0.096,-1.559 -0.335,-1.592 -0.702,-1.26 -0.73,-0.831 -0.756,-0.402 -0.431,-0.042 0,0" />
          </g>
          <g
             transform="translate(364.8892,42.9971)"
             id="g108">
            <path
               inkscape:connector-curvature="0"
               id="path110"
               style="fill:#1d1d1b;fill-opacity:1;fill-rule:evenodd;stroke:none"
               d="M 0,0 C 0.434,0.023 0.805,-0.302 0.832,-0.729 0.854,-1.158 0.53,-1.524 0.098,-1.553 -0.333,-1.584 -0.7,-1.257 -0.733,-0.826 -0.756,-0.4 -0.426,-0.034 0,0" />
          </g>
          <g
             transform="translate(378.6318,50.7188)"
             id="g112">
            <path
               inkscape:connector-curvature="0"
               id="path114"
               style="fill:#1d1d1b;fill-opacity:1;fill-rule:evenodd;stroke:none"
               d="M 0,0 C 0.686,0.044 1.276,-0.47 1.319,-1.155 1.361,-1.836 0.841,-2.423 0.153,-2.467 -0.535,-2.517 -1.12,-1.994 -1.169,-1.309 -1.21,-0.631 -0.688,-0.036 0,0" />
          </g>
          <g
             transform="translate(276.9839,35.6963)"
             id="g116">
            <path
               inkscape:connector-curvature="0"
               id="path118"
               style="fill:#1d1d1b;fill-opacity:1;fill-rule:nonzero;stroke:none"
               d="m 0,0 c -1.195,0 -1.783,-1.255 -1.783,-2.341 0,-1.069 0.588,-2.308 1.783,-2.308 1.255,0 1.799,1.272 1.799,2.386 C 1.799,-1.146 1.225,0 0,0 m 4.094,-5.379 c 0,-0.771 -0.485,-1.275 -1.154,-1.275 -0.631,0 -1.001,0.344 -1.141,0.958 -0.434,-0.704 -1.32,-1.049 -2.101,-1.049 -2.309,0 -3.772,2.14 -3.772,4.306 0,2.234 1.226,4.54 3.691,4.54 0.798,0 1.575,-0.273 2.182,-0.803 v 3.128 c 0,0.758 0.475,1.267 1.141,1.267 0.669,0 1.154,-0.509 1.154,-1.267 z" />
          </g>
          <g
             transform="translate(287.8213,34.1348)"
             id="g120">
            <path
               inkscape:connector-curvature="0"
               id="path122"
               style="fill:#1d1d1b;fill-opacity:1;fill-rule:nonzero;stroke:none"
               d="M 0,0 C -0.126,1.006 -0.764,1.746 -1.833,1.746 -2.849,1.746 -3.535,0.975 -3.644,0 Z m -3.6,-1.524 c 0.161,-1.13 1.099,-1.66 2.169,-1.66 1.175,0 1.987,0.924 2.592,0.924 0.494,0 0.938,-0.493 0.938,-0.989 0,-0.987 -2.038,-1.935 -3.739,-1.935 -2.577,0 -4.298,1.875 -4.298,4.403 0,2.324 1.689,4.443 4.105,4.443 2.484,0 4.126,-2.265 4.126,-4.171 0,-0.685 -0.305,-1.015 -1.004,-1.015 z" />
          </g>
          <g
             transform="translate(295.7471,35.1221)"
             id="g124">
            <path
               inkscape:connector-curvature="0"
               id="path126"
               style="fill:#1d1d1b;fill-opacity:1;fill-rule:nonzero;stroke:none"
               d="m 0,0 c -0.431,0 -1.306,0.667 -2.056,0.667 -0.41,0 -0.78,-0.189 -0.78,-0.636 0,-1.062 3.98,-0.909 3.98,-3.522 0,-1.522 -1.288,-2.68 -3.263,-2.68 -1.289,0 -3.197,0.727 -3.197,1.761 0,0.35 0.349,1.017 0.986,1.017 0.889,0 1.288,-0.778 2.371,-0.778 0.699,0 0.908,0.221 0.908,0.654 0,1.049 -3.981,0.888 -3.981,3.517 0,1.587 1.291,2.675 3.102,2.675 1.131,0 2.867,-0.529 2.867,-1.659 C 0.937,0.493 0.539,0 0,0" />
          </g>
          <g
             transform="translate(297.6704,36.4229)"
             id="g128">
            <path
               inkscape:connector-curvature="0"
               id="path130"
               style="fill:#1d1d1b;fill-opacity:1;fill-rule:nonzero;stroke:none"
               d="M 0,0 C 0,0.767 0.477,1.275 1.146,1.275 1.813,1.275 2.293,0.767 2.293,0 v -6.105 c 0,-0.772 -0.48,-1.276 -1.147,-1.276 C 0.477,-7.381 0,-6.877 0,-6.105 Z m 2.434,3.457 c 0,-0.722 -0.569,-1.321 -1.288,-1.321 -0.685,0 -1.288,0.62 -1.288,1.321 0,0.652 0.603,1.255 1.288,1.255 0.684,0 1.288,-0.584 1.288,-1.255" />
          </g>
          <g
             transform="translate(304.9727,35.6963)"
             id="g132">
            <path
               inkscape:connector-curvature="0"
               id="path134"
               style="fill:#1d1d1b;fill-opacity:1;fill-rule:nonzero;stroke:none"
               d="m 0,0 c -1.189,0 -1.779,-1.244 -1.779,-2.312 0,-1.223 0.59,-2.337 1.779,-2.337 1.226,0 1.801,1.142 1.801,2.267 C 1.801,-1.278 1.259,0 0,0 m 4.092,-5.894 c 0,-2.748 -1.799,-4.14 -4.407,-4.14 -0.939,0 -3.615,0.465 -3.615,1.724 0,0.429 0.477,1.003 0.925,1.003 0.734,0 1.544,-0.712 2.862,-0.712 1.115,0 1.944,0.645 1.944,1.811 V -5.67 H 1.769 c -0.476,-0.696 -1.257,-1.075 -2.305,-1.075 -2.404,0 -3.539,2.111 -3.539,4.384 0,2.314 1.466,4.462 3.775,4.462 0.78,0 1.672,-0.351 2.101,-1.049 0.145,0.602 0.508,0.95 1.146,0.95 0.667,0 1.145,-0.509 1.145,-1.275 z" />
          </g>
          <g
             transform="translate(310.3677,36.4229)"
             id="g136">
            <path
               inkscape:connector-curvature="0"
               id="path138"
               style="fill:#1d1d1b;fill-opacity:1;fill-rule:nonzero;stroke:none"
               d="m 0,0 c 0,0.767 0.477,1.275 1.146,1.275 0.591,0 0.972,-0.316 1.049,-0.846 0.451,0.626 1.133,0.945 2.214,0.945 1.799,0 3.135,-1.147 3.135,-3.088 v -4.391 c 0,-0.772 -0.473,-1.276 -1.143,-1.276 -0.669,0 -1.15,0.504 -1.15,1.276 v 3.994 c 0,1.062 -0.666,1.569 -1.496,1.569 -0.933,0 -1.461,-0.681 -1.461,-1.569 v -3.994 c 0,-0.772 -0.48,-1.276 -1.148,-1.276 C 0.477,-7.381 0,-6.877 0,-6.105 Z" />
          </g>
          <g
             transform="translate(324.6592,34.1348)"
             id="g140">
            <path
               inkscape:connector-curvature="0"
               id="path142"
               style="fill:#1d1d1b;fill-opacity:1;fill-rule:nonzero;stroke:none"
               d="M 0,0 C -0.128,1.006 -0.764,1.746 -1.829,1.746 -2.849,1.746 -3.534,0.975 -3.643,0 Z m -3.597,-1.524 c 0.159,-1.13 1.098,-1.66 2.165,-1.66 1.176,0 1.988,0.924 2.593,0.924 0.491,0 0.943,-0.493 0.943,-0.989 0,-0.987 -2.04,-1.935 -3.743,-1.935 -2.579,0 -4.298,1.875 -4.298,4.403 0,2.324 1.687,4.443 4.108,4.443 2.482,0 4.119,-2.265 4.119,-4.171 0,-0.685 -0.3,-1.015 -0.999,-1.015 z" />
          </g>
          <g
             transform="translate(331.5034,35.6963)"
             id="g144">
            <path
               inkscape:connector-curvature="0"
               id="path146"
               style="fill:#1d1d1b;fill-opacity:1;fill-rule:nonzero;stroke:none"
               d="m 0,0 c -1.192,0 -1.781,-1.255 -1.781,-2.341 0,-1.069 0.589,-2.308 1.781,-2.308 1.256,0 1.8,1.272 1.8,2.386 C 1.8,-1.146 1.227,0 0,0 M 4.089,-5.379 C 4.089,-6.15 3.611,-6.654 2.943,-6.654 2.305,-6.654 1.94,-6.31 1.8,-5.696 1.366,-6.4 0.478,-6.745 -0.305,-6.745 c -2.305,0 -3.766,2.14 -3.766,4.306 0,2.234 1.221,4.54 3.69,4.54 0.794,0 1.572,-0.273 2.181,-0.803 v 3.128 c 0,0.758 0.474,1.267 1.143,1.267 0.668,0 1.146,-0.509 1.146,-1.267 z" />
          </g>
          <g
             transform="translate(345.2524,31.0469)"
             id="g148">
            <path
               inkscape:connector-curvature="0"
               id="path150"
               style="fill:#1d1d1b;fill-opacity:1;fill-rule:nonzero;stroke:none"
               d="M 0,0 C 1.192,0 1.783,1.239 1.783,2.307 1.783,3.395 1.192,4.649 0,4.649 -1.228,4.649 -1.8,3.504 -1.8,2.387 -1.8,1.272 -1.256,0 0,0 m -4.091,9.075 c 0,0.758 0.481,1.268 1.149,1.268 0.665,0 1.142,-0.51 1.142,-1.268 V 5.947 c 0.609,0.531 1.385,0.803 2.18,0.803 2.469,0 3.692,-2.306 3.692,-4.54 0,-2.166 -1.462,-4.306 -3.771,-4.306 -0.779,0 -1.671,0.345 -2.101,1.049 -0.144,-0.613 -0.507,-0.958 -1.142,-0.958 -0.668,0 -1.149,0.504 -1.149,1.277 z" />
          </g>
          <g
             transform="translate(349.7236,36.127)"
             id="g152">
            <path
               inkscape:connector-curvature="0"
               id="path154"
               style="fill:#1d1d1b;fill-opacity:1;fill-rule:nonzero;stroke:none"
               d="m 0,0 c -0.065,0.169 -0.113,0.351 -0.113,0.582 0,0.576 0.608,0.987 1.082,0.987 0.555,0 0.957,-0.304 1.148,-0.807 l 1.572,-4.315 1.688,4.315 c 0.19,0.503 0.589,0.807 1.146,0.807 0.48,0 1.082,-0.411 1.082,-0.987 C 7.605,0.351 7.575,0.169 7.497,0 L 3.661,-9.553 c -0.194,-0.475 -0.543,-0.912 -1.084,-0.912 -0.776,0 -1.195,0.502 -1.195,0.99 0,0.229 0.066,0.465 0.142,0.673 l 1.007,2.475 z" />
          </g>
          <g
             transform="translate(360.7905,500.811)"
             id="g156">
            <path
               inkscape:connector-curvature="0"
               id="path158"
               style="fill:#1d1d1b;fill-opacity:1;fill-rule:nonzero;stroke:none"
               d="m 0,0 -9.608,1.176 7.38,4.105 c 0,0 -0.03,11.787 16.302,9.757 C 30.406,13.008 28.503,5.183 36.586,8.191 36.586,8.191 25.38,-2.721 0,0 m 173.651,30.277 c -40.956,3.293 -52.412,8.275 -52.412,8.275 18.89,5.903 24.744,1.518 60.258,5.104 63.462,6.408 72.607,46.736 72.607,46.736 -12.35,-16.045 -55.535,-22.915 -88.002,-20.575 -32.469,2.339 -72.017,-5.291 -72.017,-5.291 12.124,9.663 37.354,10.706 51.357,12.612 29.767,4.051 59.017,17.051 80.267,47.051 17.282,24.397 7.683,50.096 7.683,50.096 C 231.254,163.773 208.709,111.189 135.626,101.82 84.374,95.249 42.728,73.971 42.728,73.971 c 0,0 10.035,10.035 25.384,24.202 15.347,14.167 58.647,30.595 58.647,30.595 C 79.152,125.715 26.2,94.041 5.55,74.539 -15.098,55.037 -49.36,47.445 -49.36,47.445 c 8.776,1.338 14.391,0 14.391,0 2.584,-27.707 -17.932,-33.572 -17.932,-33.572 -73.199,-28.22 -80.872,-47.929 -80.872,-47.929 -3.5,15.934 9.896,23.857 9.896,23.857 -24.691,-5.009 -35.886,-41.482 -35.886,-41.482 -12.412,12.481 -15.923,8.77 -15.923,8.77 11.807,-17.118 21.417,-62.396 21.417,-62.396 3.118,19.655 24.277,21.587 24.277,21.587 v -14.089 c 9.685,5.904 18.429,21.746 18.429,21.746 l 1.402,-16.434 c 12.35,6.011 14.987,20.857 14.987,20.857 l -0.022,-15.644 c 10.584,3.855 16.529,21.25 16.529,21.25 l -1.387,-14.322 c 13.128,7.762 14.789,18.16 14.789,18.16 -1.181,-7.674 0.765,-14.463 0.765,-14.463 16.55,24.302 35.211,27.255 35.211,27.255 38.96,-10.625 24.958,-42.289 24.958,-42.289 -32.891,7.886 -56.244,-4.935 -56.244,-4.935 l -1.181,11.215 c -10.859,-6.478 -18.07,-17.318 -18.07,-17.318 l -3.272,11.951 c -5.764,-3.195 -15.847,-16.473 -15.847,-16.473 l -2.952,10.625 c -9.445,-5.903 -17.119,-21.25 -17.119,-21.25 l -1.771,12.395 c -24.8,-29.367 -11.008,-46.736 -11.008,-46.736 -3.333,12.886 5.068,22.086 5.068,22.086 0,0 4.169,-8.997 18.336,-14.901 14.168,-5.902 15.515,-24.027 15.515,-24.027 7.84,14.934 -5.073,29.714 -5.073,29.714 9.259,-2.578 64.929,15.763 111.752,20.877 46.823,5.115 49.023,-16.581 49.023,-16.581 60.807,36.65 27.572,101.534 27.572,101.534 0,0 30.251,-14.115 21.986,-58.98 -8.263,-44.863 -49.585,-55.488 -49.585,-55.488 -8.855,-13.577 -8.264,-12.986 -82.643,-57.261 -74.379,-44.272 -56.624,-124.661 -56.624,-124.661 39.598,50.659 69.887,51.226 155.205,78.028 85.318,26.802 96.22,87.365 96.22,87.365 5.313,-21.251 -12.691,-68.782 -12.691,-68.782 49.881,30.389 43.977,134.897 43.977,134.897 17.119,-30.696 7.72,-85.111 7.72,-85.111 61.439,132.711 -39.596,185.463 -39.596,185.463 32.466,0.59 69.112,-37.875 69.112,-37.875 -14.121,48.9 -45.468,64.24 -69.828,66.199" />
          </g>
        </g>
      </g>
    </g>
  </g>
</svg>
